{"title":"Capriccio all'italiana aka Caprice Italian Style (1968)","uid":7575893,"size":918097392,"categoryP":"video","categoryS":"movies","magnet":"?xt=urn:btih:f283860464e93a83727a5196d749bcc8d5d4170d&amp;dn=+Capriccio+all%27italiana+aka+Caprice+Italian+Style+%281968%29&amp;tr=udp%3A%2F%2Ftracker.openbittorrent.com%3A80&amp;tr=udp%3A%2F%2Fopen.demonii.com%3A1337&amp;tr=udp%3A%2F%2Ftracker.coppersurfer.tk%3A6969&amp;tr=udp%3A%2F%2Fexodus.desync.com%3A6969","seeders":0,"leechers":0,"uploader":"moonflux","files":-1,"time":1346112755,"description":"Codec ID/Hint : XviD \nDuration : 1h 18mn \nBit rate : 1 403 Kbps \nWidth : 704 pixels \nHeight : 384 pixels \nDisplay aspect ratio : 16/9 \nFrame rate : 25.000 fps \nResolution : 24 bits \nColorimetry : 4:2:0 \nScan type : Progressive \nBits/(Pixel*Frame) : 0.208 \nStream size : 792 MiB (91%) \n\nCodec ID/Hint : MP3 \nDuration : 1h 18mn \nBit rate mode : Variable \nBit rate : 125 Kbps \nNominal bit rate : 128 Kbps \nChannel(s) : 2 channels \nSampling rate : 48.0 KHz \nResolution : 16 bits \nStream size : 70.7 MiB (8%)","torrent":{"xt":"urn:btih:f283860464e93a83727a5196d749bcc8d5d4170d","amp;dn":"+Capriccio+all%27italiana+aka+Caprice+Italian+Style+%281968%29","amp;tr":["udp%3A%2F%2Ftracker.openbittorrent.com%3A80","udp%3A%2F%2Fopen.demonii.com%3A1337","udp%3A%2F%2Ftracker.coppersurfer.tk%3A6969","udp%3A%2F%2Fexodus.desync.com%3A6969"],"infoHash":"f283860464e93a83727a5196d749bcc8d5d4170d","infoHashBuffer":{"type":"Buffer","data":[242,131,134,4,100,233,58,131,114,122,81,150,215,73,188,200,213,212,23,13]},"announce":[],"urlList":[]}}